<?xml version="1.0" encoding="UTF-8" standalone="no"?><!DOCTYPE svg PUBLIC "-//W3C//DTD SVG 1.1//EN" "http://www.w3.org/Graphics/SVG/1.1/DTD/svg11.dtd"><svg width="100%" height="100%" viewBox="0 0 92 92" version="1.1" xmlns="http://www.w3.org/2000/svg" xmlns:xlink="http://www.w3.org/1999/xlink" xml:space="preserve" xmlns:serif="http://www.serif.com/" style="fill-rule:evenodd;clip-rule:evenodd;stroke-linejoin:round;stroke-miterlimit:2;"><g id="Warstwa-1" serif:id="Warstwa 1"><path d="M45.569,45.218l-41.696,-0.194l80.257,-36.705l-38.561,36.899Z" style="fill:#fdc200;"/><path d="M46.549,46.218l-1.629,41.665l40.179,-78.576l-38.55,36.911Z" style="fill:#f6af01;"/><path d="M55.491,6.557c6.08,0 11.748,1.813 16.495,4.923l-2.937,1.398c-4.006,-2.283 -8.63,-3.591 -13.558,-3.591c-7.62,0 -14.525,3.121 -19.519,8.161c-3.704,3.738 -6.317,8.035 -7.415,13.206l-2.959,1.324c0.939,-6.52 3.923,-11.896 8.442,-16.452c5.487,-5.537 13.074,-8.969 21.451,-8.969Zm26.401,15.437c2.222,4.256 3.934,10.028 3.934,15.169c0,8.447 -3.397,16.097 -8.884,21.639c-4.718,4.759 -11.402,8.041 -18.388,8.846l1.087,-2.921c6.17,-0.819 11.182,-3.62 15.368,-7.847c4.993,-5.042 8.087,-12.015 8.087,-19.717c0,-3.989 -1.357,-9.084 -2.853,-12.518l1.649,-2.651Zm-39.64,42.711c-3.061,-1.502 -5.834,-3.503 -8.212,-5.903c-2.93,-2.959 -5.264,-6.519 -6.804,-10.484l2.962,0.03c1.39,3.203 3.361,6.094 5.774,8.532c1.895,1.914 4.066,3.549 6.446,4.844l-0.166,2.981Z" style="fill:#fdc200;fill-rule:nonzero;"/></g></svg>