<?xml version="1.0" encoding="UTF-8" standalone="no"?><!DOCTYPE svg PUBLIC "-//W3C//DTD SVG 1.1//EN" "http://www.w3.org/Graphics/SVG/1.1/DTD/svg11.dtd"><svg width="100%" height="100%" viewBox="0 0 338 105" version="1.1" xmlns="http://www.w3.org/2000/svg" xmlns:xlink="http://www.w3.org/1999/xlink" xml:space="preserve" xmlns:serif="http://www.serif.com/" style="fill-rule:evenodd;clip-rule:evenodd;stroke-linejoin:round;stroke-miterlimit:2;"><g id="Warstwa-1" serif:id="Warstwa 1"><path d="M124.094,24.158c1.133,0 2.181,0.098 3.147,0.31c0.967,0.205 1.8,0.463 2.502,0.764c0.699,0.301 1.25,0.63 1.649,0.976c0.399,0.346 0.604,0.664 0.604,0.948c0,0.594 -0.027,1.374 -0.072,2.324c-0.045,0.957 -0.098,2.11 -0.169,3.458l-1.126,-0.035c0.009,-0.125 0.018,-0.239 0.018,-0.346c0.01,-0.115 0.01,-0.221 0.01,-0.344c-0.01,-0.604 -0.081,-1.172 -0.205,-1.714c-0.124,-0.539 -0.356,-1.055 -0.683,-1.551c-0.346,-0.487 -0.764,-0.931 -1.241,-1.313c-0.48,-0.382 -1.003,-0.701 -1.58,-0.957c-0.568,-0.258 -1.179,-0.463 -1.826,-0.594c-0.647,-0.134 -1.312,-0.205 -1.988,-0.205c-1.16,0 -2.217,0.186 -3.165,0.541c-0.949,0.363 -1.792,0.86 -2.537,1.499c-0.744,0.639 -1.391,1.384 -1.942,2.263c-0.549,0.868 -1.01,1.809 -1.365,2.837c-0.363,1.019 -0.63,2.093 -0.807,3.22c-0.179,1.126 -0.267,2.26 -0.267,3.413c0,1.365 0.116,2.644 0.338,3.85c0.22,1.205 0.549,2.315 0.957,3.324c0.418,1.012 0.922,1.926 1.509,2.724c0.594,0.806 1.25,1.491 1.986,2.049c0.727,0.559 1.525,0.984 2.377,1.277c0.852,0.301 1.747,0.444 2.696,0.444c0.657,0 1.33,-0.071 2.029,-0.214c0.702,-0.142 1.404,-0.363 2.129,-0.674c0.719,-0.31 1.437,-0.701 2.174,-1.171c0.726,-0.468 1.463,-1.036 2.191,-1.693c0.07,0.036 0.151,0.079 0.239,0.132c0.088,0.045 0.177,0.107 0.248,0.169c0.079,0.072 0.151,0.143 0.203,0.222c0.055,0.071 0.091,0.151 0.091,0.231c0,0.053 -0.036,0.124 -0.107,0.221c-0.853,0.932 -1.712,1.72 -2.573,2.35c-0.869,0.63 -1.738,1.146 -2.616,1.535c-0.869,0.391 -1.757,0.665 -2.642,0.833c-0.888,0.169 -1.774,0.257 -2.652,0.257c-1.172,0 -2.289,-0.159 -3.343,-0.486c-1.065,-0.33 -2.05,-0.791 -2.962,-1.402c-0.905,-0.603 -1.731,-1.339 -2.466,-2.2c-0.737,-0.859 -1.367,-1.826 -1.88,-2.9c-0.523,-1.074 -0.924,-2.243 -1.208,-3.503c-0.284,-1.26 -0.425,-2.59 -0.425,-3.991c0,-1.358 0.141,-2.714 0.418,-4.079c0.265,-1.367 0.673,-2.67 1.215,-3.911c0.539,-1.251 1.224,-2.413 2.038,-3.495c0.826,-1.09 1.775,-2.031 2.866,-2.83c1.091,-0.797 2.322,-1.427 3.69,-1.878c1.374,-0.463 2.881,-0.685 4.523,-0.685Zm10.811,23.086c0,-0.878 0.088,-1.764 0.275,-2.669c0.176,-0.897 0.451,-1.775 0.806,-2.617c0.356,-0.843 0.79,-1.631 1.313,-2.376c0.523,-0.737 1.126,-1.384 1.818,-1.942c0.683,-0.551 1.445,-0.993 2.28,-1.313c0.842,-0.32 1.754,-0.479 2.749,-0.479c1.108,0 2.084,0.231 2.936,0.701c0.859,0.47 1.568,1.081 2.155,1.852c0.575,0.764 1.019,1.642 1.312,2.616c0.301,0.976 0.452,1.979 0.452,3c0,0.876 -0.089,1.764 -0.275,2.668c-0.177,0.896 -0.453,1.774 -0.807,2.616c-0.364,0.843 -0.806,1.632 -1.331,2.377c-0.523,0.737 -1.126,1.384 -1.809,1.943c-0.683,0.549 -1.444,0.993 -2.287,1.313c-0.842,0.319 -1.756,0.479 -2.742,0.479c-1.107,0 -2.093,-0.231 -2.943,-0.701c-0.852,-0.471 -1.57,-1.082 -2.147,-1.855c-0.567,-0.761 -1.01,-1.64 -1.304,-2.615c-0.301,-0.976 -0.451,-1.979 -0.451,-2.998Zm3.103,-1.232c0,0.585 0.045,1.179 0.143,1.79c0.088,0.604 0.229,1.189 0.415,1.748c0.196,0.567 0.427,1.09 0.711,1.579c0.282,0.497 0.612,0.922 1.001,1.286c0.382,0.364 0.816,0.647 1.295,0.851c0.48,0.212 1.012,0.319 1.597,0.319c0.63,0 1.188,-0.141 1.666,-0.417c0.48,-0.265 0.897,-0.628 1.243,-1.082c0.354,-0.451 0.647,-0.966 0.879,-1.543c0.229,-0.586 0.408,-1.18 0.549,-1.8c0.141,-0.621 0.239,-1.232 0.293,-1.836c0.053,-0.611 0.079,-1.171 0.079,-1.675c0,-0.604 -0.043,-1.198 -0.133,-1.802c-0.089,-0.602 -0.23,-1.188 -0.426,-1.747c-0.186,-0.559 -0.425,-1.081 -0.701,-1.57c-0.284,-0.487 -0.621,-0.912 -1.001,-1.268c-0.391,-0.363 -0.825,-0.647 -1.305,-0.852c-0.477,-0.212 -1.009,-0.31 -1.587,-0.31c-0.63,0 -1.188,0.134 -1.668,0.399c-0.487,0.267 -0.895,0.63 -1.249,1.083c-0.355,0.444 -0.639,0.957 -0.87,1.542c-0.23,0.577 -0.416,1.181 -0.549,1.792c-0.141,0.611 -0.239,1.225 -0.294,1.836c-0.062,0.613 -0.088,1.171 -0.088,1.677Zm14.253,-8.568c0.611,-0.212 1.205,-0.408 1.773,-0.585c0.568,-0.178 1.083,-0.338 1.561,-0.462c0.48,-0.132 0.897,-0.23 1.26,-0.301c0.363,-0.072 0.647,-0.105 0.859,-0.105c0.506,0 0.897,0.15 1.172,0.451c0.284,0.293 0.425,0.807 0.425,1.535c0,0.176 -0.017,0.549 -0.053,1.107c-0.036,0.568 -0.081,1.286 -0.15,2.138c-0.062,0.86 -0.143,1.845 -0.241,2.945c-0.088,1.099 -0.203,2.261 -0.318,3.502l0.07,0.019c0.613,-2.208 1.26,-4.053 1.943,-5.544c0.682,-1.499 1.384,-2.704 2.093,-3.618c0.709,-0.922 1.42,-1.578 2.138,-1.969c0.718,-0.399 1.418,-0.595 2.093,-0.595c0.602,0 1.108,0.153 1.525,0.444c0.408,0.294 0.745,0.683 1.01,1.153c0.258,0.479 0.453,1.021 0.568,1.623c0.124,0.604 0.186,1.215 0.186,1.835c0,0.551 -0.017,1.127 -0.052,1.74c-0.036,0.603 -0.08,1.205 -0.134,1.8c-0.053,0.594 -0.105,1.162 -0.16,1.694c-0.053,0.532 -0.105,0.993 -0.15,1.392l0.08,0.018c0.602,-2.236 1.251,-4.114 1.941,-5.623c0.685,-1.508 1.394,-2.723 2.103,-3.644c0.718,-0.914 1.436,-1.57 2.155,-1.969c0.718,-0.391 1.41,-0.587 2.083,-0.587c0.435,0 0.862,0.091 1.27,0.267c0.399,0.186 0.761,0.478 1.081,0.879c0.311,0.408 0.568,0.921 0.764,1.551c0.186,0.639 0.284,1.392 0.284,2.289c0,0.248 -0.019,0.594 -0.045,1.038c-0.036,0.434 -0.072,0.921 -0.115,1.453c-0.045,0.542 -0.088,1.108 -0.151,1.712c-0.054,0.603 -0.107,1.188 -0.152,1.773c-0.034,0.577 -0.079,1.136 -0.105,1.659c-0.027,0.523 -0.045,0.976 -0.045,1.358c0,0.673 0.026,1.224 0.081,1.649c0.062,0.425 0.15,0.754 0.284,1.002c0.131,0.248 0.3,0.418 0.513,0.506c0.222,0.098 0.487,0.141 0.799,0.141c0.452,0 0.912,-0.062 1.401,-0.186c0.487,-0.134 0.974,-0.301 1.473,-0.532l0.238,0.675c-0.31,0.256 -0.701,0.513 -1.179,0.771c-0.479,0.258 -0.976,0.496 -1.498,0.709c-0.525,0.222 -1.048,0.398 -1.571,0.532c-0.515,0.133 -0.976,0.196 -1.374,0.196c-0.471,0 -0.833,-0.125 -1.1,-0.373c-0.275,-0.248 -0.471,-0.594 -0.612,-1.028c-0.133,-0.435 -0.212,-0.941 -0.257,-1.518c-0.036,-0.585 -0.053,-1.206 -0.053,-1.871c0,-0.807 0.026,-1.649 0.079,-2.537c0.052,-0.876 0.124,-1.719 0.186,-2.518c0.071,-0.798 0.134,-1.516 0.196,-2.165c0.052,-0.647 0.079,-1.134 0.079,-1.463c0,-0.94 -0.168,-1.649 -0.497,-2.119c-0.336,-0.47 -0.788,-0.709 -1.356,-0.709c-0.443,0 -0.914,0.212 -1.41,0.63c-0.497,0.415 -1.003,1.002 -1.499,1.737c-0.496,0.736 -0.976,1.607 -1.437,2.599c-0.47,1.003 -0.887,2.084 -1.26,3.256c-0.372,1.169 -0.682,2.394 -0.94,3.671c-0.256,1.276 -0.416,2.553 -0.496,3.84l-2.714,0.336l-0.213,-0.009c0.098,-1.817 0.187,-3.432 0.266,-4.833c0.08,-1.411 0.159,-2.633 0.221,-3.68c0.062,-1.046 0.117,-1.934 0.16,-2.662c0.036,-0.725 0.053,-1.329 0.053,-1.809c0,-0.966 -0.167,-1.702 -0.496,-2.191c-0.337,-0.496 -0.762,-0.744 -1.277,-0.744c-0.461,0 -0.948,0.205 -1.454,0.62c-0.506,0.408 -1.002,0.977 -1.499,1.704c-0.496,0.728 -0.967,1.587 -1.42,2.58c-0.46,0.993 -0.869,2.067 -1.241,3.22c-0.363,1.153 -0.673,2.36 -0.921,3.637c-0.241,1.267 -0.409,2.544 -0.48,3.831l-2.723,0.336l-0.203,-0.009c0.07,-0.824 0.132,-1.719 0.194,-2.695c0.062,-0.967 0.116,-1.952 0.169,-2.954c0.052,-1.003 0.098,-1.986 0.133,-2.97c0.043,-0.985 0.079,-1.907 0.106,-2.759c0.035,-0.851 0.054,-1.613 0.062,-2.288c0.019,-0.683 0.026,-1.215 0.026,-1.604c0,-0.356 -0.026,-0.649 -0.079,-0.898c-0.053,-0.238 -0.134,-0.434 -0.239,-0.575c-0.116,-0.143 -0.248,-0.241 -0.408,-0.303c-0.169,-0.062 -0.365,-0.097 -0.585,-0.097c-0.319,0 -0.692,0.045 -1.119,0.133c-0.434,0.088 -0.93,0.205 -1.48,0.355l-0.195,-0.94Zm40.265,-0.558c0.434,0.017 0.852,0.036 1.26,0.043c0.398,0.009 0.78,0.009 1.126,0.019c0.354,0 0.664,0.009 0.948,0.009c0.284,0.008 0.525,0.008 0.718,0.008c0.401,0 0.781,-0.008 1.136,-0.036c0.356,-0.026 0.657,-0.053 0.905,-0.079c0.097,0.327 0.141,0.585 0.141,0.78c0,0.382 -0.151,0.63 -0.468,0.754c-0.32,0.115 -0.773,0.177 -1.375,0.177c-0.594,0 -1.26,-0.026 -1.997,-0.097c-0.736,-0.063 -1.542,-0.125 -2.43,-0.187c-0.036,1.029 -0.079,2.156 -0.132,3.363c-0.054,1.215 -0.116,2.473 -0.195,3.768c-0.089,1.304 -0.186,2.616 -0.311,3.955c-0.124,1.339 -0.268,2.648 -0.443,3.921c-0.151,1.102 -0.99,1.477 -1.191,2.502l-1.826,-0.027c0.169,-1.275 0.354,-1.935 0.453,-3.406c0.142,-2.047 0.239,-4.257 0.284,-6.634c0.053,-2.377 0.08,-4.869 0.098,-7.477c-0.816,0.009 -1.561,0.035 -2.262,0.09c-0.692,0.052 -1.268,0.158 -1.738,0.337c-0.035,-0.081 -0.052,-0.16 -0.052,-0.249c0,-0.205 0.095,-0.4 0.301,-0.577c0.195,-0.177 0.479,-0.337 0.833,-0.478c0.364,-0.133 0.799,-0.25 1.303,-0.338c0.506,-0.079 1.064,-0.141 1.685,-0.168c0.028,-0.816 0.071,-1.587 0.126,-2.333c0.053,-0.736 0.124,-1.471 0.203,-2.19c0.079,-0.727 0.186,-1.455 0.301,-2.183c0.124,-0.726 0.276,-1.48 0.462,-2.251c0.23,-1.021 0.532,-1.926 0.905,-2.742c0.372,-0.806 0.797,-1.525 1.267,-2.155c0.471,-0.63 0.984,-1.169 1.535,-1.613c0.549,-0.454 1.117,-0.826 1.694,-1.118c0.576,-0.283 1.17,-0.496 1.764,-0.629c0.604,-0.143 1.189,-0.205 1.757,-0.205c0.842,0 1.587,0.107 2.243,0.329c0.647,0.222 1.206,0.513 1.659,0.869c0.451,0.362 0.797,0.771 1.038,1.214c0.239,0.454 0.363,0.914 0.363,1.384c0,0.364 -0.062,0.683 -0.177,0.976c-0.116,0.284 -0.274,0.523 -0.479,0.719c-0.204,0.194 -0.444,0.346 -0.709,0.442c-0.267,0.107 -0.559,0.16 -0.862,0.16c-0.398,0 -0.816,-0.098 -1.258,-0.301l-0.054,-0.141c0.169,-0.382 0.293,-0.711 0.372,-1.002c0.081,-0.285 0.124,-0.578 0.124,-0.879c0,-0.417 -0.088,-0.773 -0.255,-1.074c-0.17,-0.3 -0.392,-0.541 -0.657,-0.735c-0.276,-0.186 -0.577,-0.329 -0.914,-0.418c-0.336,-0.088 -0.665,-0.123 -0.993,-0.123c-0.966,0 -1.792,0.212 -2.465,0.646c-0.666,0.435 -1.224,1.029 -1.678,1.783c-0.442,0.764 -0.797,1.649 -1.055,2.678c-0.257,1.029 -0.451,2.129 -0.594,3.317c-0.133,1.189 -0.229,2.43 -0.284,3.726c-0.053,1.294 -0.105,2.589 -0.15,3.876Zm5.749,10.358c0,-0.878 0.088,-1.764 0.274,-2.669c0.177,-0.897 0.452,-1.775 0.807,-2.617c0.355,-0.843 0.79,-1.631 1.313,-2.376c0.522,-0.737 1.126,-1.384 1.818,-1.942c0.683,-0.551 1.444,-0.993 2.279,-1.313c0.843,-0.32 1.755,-0.479 2.75,-0.479c1.108,0 2.084,0.231 2.935,0.701c0.86,0.47 1.569,1.081 2.156,1.852c0.575,0.764 1.019,1.642 1.312,2.616c0.301,0.976 0.452,1.979 0.452,3c0,0.876 -0.089,1.764 -0.275,2.668c-0.177,0.896 -0.453,1.774 -0.807,2.616c-0.365,0.843 -0.807,1.632 -1.331,2.377c-0.523,0.737 -1.127,1.384 -1.809,1.943c-0.683,0.549 -1.445,0.993 -2.287,1.313c-0.843,0.319 -1.757,0.479 -2.742,0.479c-1.108,0 -2.093,-0.231 -2.943,-0.701c-0.852,-0.471 -1.57,-1.082 -2.148,-1.855c-0.566,-0.761 -1.01,-1.64 -1.303,-2.615c-0.301,-0.976 -0.451,-1.979 -0.451,-2.998Zm3.103,-1.232c0,0.585 0.045,1.179 0.143,1.79c0.088,0.604 0.229,1.189 0.415,1.748c0.196,0.567 0.427,1.09 0.711,1.579c0.282,0.497 0.611,0.922 1,1.286c0.382,0.364 0.817,0.647 1.296,0.851c0.48,0.212 1.012,0.319 1.597,0.319c0.63,0 1.188,-0.141 1.666,-0.417c0.479,-0.265 0.897,-0.628 1.243,-1.082c0.353,-0.451 0.647,-0.966 0.878,-1.543c0.23,-0.586 0.408,-1.18 0.549,-1.8c0.141,-0.621 0.239,-1.232 0.294,-1.836c0.052,-0.611 0.079,-1.171 0.079,-1.675c0,-0.604 -0.044,-1.198 -0.134,-1.802c-0.088,-0.602 -0.229,-1.188 -0.425,-1.747c-0.186,-0.559 -0.425,-1.081 -0.701,-1.57c-0.284,-0.487 -0.621,-0.912 -1.001,-1.268c-0.391,-0.363 -0.825,-0.647 -1.305,-0.852c-0.478,-0.212 -1.01,-0.31 -1.587,-0.31c-0.63,0 -1.189,0.134 -1.668,0.399c-0.487,0.267 -0.895,0.63 -1.249,1.083c-0.355,0.444 -0.639,0.957 -0.87,1.542c-0.23,0.577 -0.416,1.181 -0.55,1.792c-0.141,0.611 -0.238,1.225 -0.293,1.836c-0.062,0.613 -0.088,1.171 -0.088,1.677Zm17.871,9.036l-0.203,-0.009c0.069,-0.824 0.131,-1.719 0.193,-2.695c0.062,-0.967 0.117,-1.952 0.17,-2.954c0.052,-1.003 0.097,-1.986 0.133,-2.97c0.043,-0.985 0.079,-1.907 0.105,-2.759c0.036,-0.851 0.055,-1.613 0.062,-2.288c0.019,-0.683 0.027,-1.215 0.027,-1.604c0,-0.32 -0.017,-0.595 -0.043,-0.826c-0.027,-0.239 -0.082,-0.434 -0.177,-0.585c-0.09,-0.16 -0.222,-0.276 -0.391,-0.346c-0.177,-0.071 -0.408,-0.116 -0.7,-0.116c-0.152,0 -0.303,0.009 -0.463,0.028c-0.15,0.017 -0.327,0.043 -0.513,0.079c-0.196,0.035 -0.408,0.079 -0.647,0.143c-0.241,0.052 -0.515,0.114 -0.826,0.193l-0.195,-0.93c1.437,-0.523 2.608,-0.888 3.494,-1.101c0.897,-0.212 1.499,-0.317 1.809,-0.317c0.568,0 0.985,0.167 1.224,0.504c0.249,0.329 0.373,0.825 0.373,1.482c0,0.061 -0.01,0.238 -0.027,0.532c-0.017,0.3 -0.035,0.682 -0.071,1.152c-0.026,0.47 -0.062,1.02 -0.105,1.64c-0.045,0.63 -0.098,1.296 -0.151,2.014c-0.062,0.709 -0.124,1.454 -0.186,2.235c-0.072,0.772 -0.152,1.543 -0.222,2.314l0.124,0.01c0.416,-1.695 0.886,-3.272 1.411,-4.745c0.523,-1.463 1.117,-2.74 1.764,-3.823c0.656,-1.081 1.374,-1.933 2.164,-2.554c0.78,-0.62 1.64,-0.931 2.571,-0.931c0.338,0 0.639,0.053 0.923,0.16c0.292,0.098 0.532,0.248 0.745,0.435c0.203,0.186 0.372,0.408 0.496,0.656c0.115,0.257 0.177,0.541 0.177,0.842c0,0.39 -0.079,0.762 -0.248,1.127c-0.177,0.353 -0.442,0.673 -0.807,0.948l-0.098,0c-0.362,-0.301 -0.709,-0.523 -1.036,-0.657c-0.319,-0.131 -0.666,-0.194 -1.03,-0.194c-0.39,0 -0.771,0.07 -1.134,0.222c-0.365,0.142 -0.692,0.354 -0.993,0.629c-0.497,0.453 -0.959,1.047 -1.384,1.792c-0.426,0.735 -0.807,1.561 -1.163,2.456c-0.346,0.904 -0.665,1.854 -0.947,2.84c-0.277,0.993 -0.525,1.959 -0.728,2.899c-0.205,0.941 -0.365,1.827 -0.489,2.652c-0.132,0.824 -0.22,1.516 -0.265,2.084l-2.723,0.336Zm20.441,-28.424c-0.362,1.65 -0.665,3.343 -0.913,5.1c-0.249,1.756 -0.461,3.486 -0.629,5.188c0.409,0.017 0.798,0.036 1.189,0.045c0.38,0.008 0.745,0.008 1.072,0.017c0.336,0.01 0.639,0.017 0.914,0.017l0.682,0c0.79,0 1.428,-0.043 1.934,-0.141c0.045,0.141 0.08,0.284 0.107,0.399c0.026,0.124 0.036,0.24 0.036,0.336c0,0.382 -0.16,0.63 -0.47,0.747c-0.32,0.115 -0.773,0.167 -1.375,0.167c-0.568,0 -1.207,-0.035 -1.916,-0.105c-0.702,-0.072 -1.482,-0.134 -2.315,-0.196c-0.098,0.931 -0.177,1.826 -0.239,2.714c-0.072,0.878 -0.124,1.702 -0.16,2.482c-0.036,0.781 -0.072,1.508 -0.088,2.174c-0.019,0.666 -0.019,1.242 -0.019,1.738c0,0.931 0.045,1.756 0.143,2.484c0.088,0.726 0.257,1.339 0.505,1.853c0.239,0.505 0.576,0.887 1.003,1.162c0.415,0.267 0.957,0.398 1.604,0.398c0.47,0 0.993,-0.079 1.57,-0.248c0.576,-0.16 1.232,-0.425 1.969,-0.788c0.229,0.23 0.363,0.514 0.399,0.86c-0.542,0.355 -1.081,0.673 -1.623,0.966c-0.549,0.284 -1.082,0.533 -1.614,0.745c-0.524,0.205 -1.038,0.365 -1.534,0.479c-0.489,0.115 -0.959,0.168 -1.401,0.168c-0.578,0 -1.11,-0.105 -1.588,-0.318c-0.479,-0.214 -0.896,-0.587 -1.25,-1.126c-0.346,-0.542 -0.622,-1.27 -0.816,-2.191c-0.196,-0.924 -0.293,-2.076 -0.293,-3.487c0,-0.78 0.009,-1.595 0.035,-2.43c0.026,-0.842 0.062,-1.685 0.107,-2.544c0.044,-0.852 0.096,-1.711 0.168,-2.572c0.071,-0.853 0.15,-1.702 0.231,-2.528c-0.683,0.009 -1.313,0.036 -1.899,0.081c-0.585,0.052 -1.082,0.124 -1.499,0.229c-0.027,-0.052 -0.043,-0.115 -0.043,-0.186c0,-0.177 0.088,-0.346 0.265,-0.513c0.178,-0.16 0.427,-0.303 0.746,-0.435c0.311,-0.126 0.691,-0.231 1.134,-0.319c0.444,-0.089 0.924,-0.151 1.456,-0.187c0.194,-1.809 0.408,-3.522 0.637,-5.126c0.222,-1.613 0.454,-3.05 0.676,-4.32c0.043,-0.222 0.124,-0.408 0.238,-0.558c0.115,-0.141 0.258,-0.258 0.408,-0.346c0.16,-0.089 0.328,-0.151 0.506,-0.187c0.186,-0.035 0.363,-0.052 0.533,-0.052c0.291,0 0.549,0.035 0.78,0.098c0.222,0.062 0.442,0.141 0.637,0.256Zm38.573,28.584l-0.277,-0.043c-0.248,-1.589 -0.496,-3.079 -0.744,-4.453c-0.248,-1.375 -0.487,-2.678 -0.735,-3.902c-0.249,-1.215 -0.489,-2.378 -0.728,-3.478c-0.239,-1.098 -0.47,-2.162 -0.7,-3.201c-0.319,-1.436 -0.604,-2.758 -0.852,-3.982c-0.257,-1.215 -0.515,-2.376 -0.799,-3.494l-0.088,0c-0.346,1.25 -0.7,2.465 -1.055,3.627c-0.356,1.162 -0.719,2.315 -1.091,3.458c-0.372,1.136 -0.764,2.289 -1.162,3.442c-0.408,1.153 -0.843,2.351 -1.294,3.592c-0.444,1.241 -0.924,2.537 -1.429,3.894c-0.504,1.366 -1.046,2.81 -1.623,4.354l-2.234,0.186l-0.267,-0.043c-1.375,-6.919 -2.545,-12.532 -3.53,-16.843c-0.984,-4.31 -1.764,-7.317 -2.349,-9.038c-0.15,-0.46 -0.32,-0.859 -0.489,-1.188c-0.177,-0.318 -0.38,-0.585 -0.611,-0.798c-0.232,-0.204 -0.506,-0.355 -0.826,-0.453c-0.318,-0.098 -0.69,-0.141 -1.134,-0.141c-0.293,0 -0.603,0.017 -0.94,0.053c-0.346,0.045 -0.728,0.098 -1.145,0.169l-0.142,-1.162c1.349,-0.329 2.457,-0.577 3.344,-0.754c0.895,-0.177 1.623,-0.265 2.208,-0.265c0.453,0 0.835,0.062 1.136,0.186c0.301,0.124 0.549,0.327 0.762,0.602c0.205,0.276 0.391,0.639 0.541,1.083c0.16,0.434 0.32,0.974 0.497,1.604c0.248,0.905 0.551,2.04 0.904,3.425c0.346,1.382 0.737,3.014 1.162,4.895c0.425,1.88 0.879,4.009 1.375,6.384c0.497,2.387 1.012,5.029 1.544,7.938l0.096,0c0.427,-1.17 0.878,-2.42 1.341,-3.733c0.46,-1.322 0.931,-2.678 1.408,-4.071c0.48,-1.392 0.95,-2.812 1.43,-4.258c0.477,-1.454 0.947,-2.89 1.4,-4.336c0.461,-1.445 0.905,-2.865 1.34,-4.282c0.424,-1.411 0.833,-2.778 1.214,-4.108c0.036,-0.15 0.141,-0.265 0.311,-0.336c0.159,-0.062 0.336,-0.098 0.532,-0.098c0.186,0 0.363,0.026 0.515,0.071c0.23,0.869 0.487,1.898 0.771,3.086c0.284,1.198 0.585,2.483 0.895,3.876c0.311,1.392 0.63,2.855 0.967,4.389c0.337,1.535 0.666,3.096 0.985,4.674c0.328,1.57 0.638,3.14 0.948,4.701c0.303,1.561 0.577,3.051 0.843,4.47l0.062,0c0.62,-1.303 1.243,-2.651 1.863,-4.052c0.621,-1.394 1.215,-2.795 1.783,-4.187c0.566,-1.393 1.091,-2.768 1.587,-4.116c0.487,-1.356 0.914,-2.633 1.268,-3.831c0.365,-1.205 0.639,-2.315 0.842,-3.325c0.205,-1.021 0.311,-1.89 0.311,-2.618c0,-0.424 -0.036,-0.849 -0.115,-1.284c-0.072,-0.434 -0.177,-0.842 -0.329,-1.224c-0.15,-0.382 -0.337,-0.728 -0.566,-1.038c-0.232,-0.31 -0.497,-0.559 -0.809,-0.736l0.055,-0.248c0.167,-0.028 0.346,-0.045 0.513,-0.062c0.179,-0.019 0.346,-0.028 0.525,-0.028c0.487,0 0.948,0.062 1.392,0.179c0.434,0.124 0.825,0.31 1.161,0.575c0.337,0.258 0.612,0.594 0.807,1.012c0.203,0.417 0.301,0.914 0.301,1.489c0,0.444 -0.079,1.029 -0.238,1.747c-0.151,0.728 -0.373,1.561 -0.666,2.502c-0.292,0.949 -0.638,1.985 -1.046,3.112c-0.408,1.136 -0.861,2.333 -1.358,3.592c-0.496,1.269 -1.038,2.582 -1.613,3.956c-0.568,1.375 -1.172,2.767 -1.8,4.187c-0.63,1.417 -1.279,2.837 -1.935,4.274c-0.664,1.427 -1.339,2.847 -2.012,4.239l-2.208,0.186Zm23.518,-13.852c0,-0.683 -0.114,-1.277 -0.336,-1.783c-0.231,-0.496 -0.523,-0.914 -0.888,-1.234c-0.363,-0.319 -0.771,-0.558 -1.232,-0.709c-0.462,-0.159 -0.923,-0.238 -1.374,-0.238c-0.621,0 -1.136,0.069 -1.561,0.193c-0.427,0.134 -0.773,0.311 -1.038,0.532c-0.258,0.232 -0.453,0.497 -0.568,0.8c-0.115,0.31 -0.177,0.637 -0.177,1.002c0,0.408 0.079,0.833 0.229,1.251c0.153,0.415 0.373,0.823 0.666,1.222l-0.052,0.143c-0.489,0.248 -0.986,0.363 -1.492,0.363c-0.291,0 -0.566,-0.043 -0.823,-0.132c-0.258,-0.09 -0.48,-0.222 -0.666,-0.4c-0.186,-0.168 -0.327,-0.38 -0.444,-0.63c-0.105,-0.256 -0.16,-0.53 -0.16,-0.85c0,-0.506 0.126,-0.986 0.374,-1.437c0.249,-0.453 0.576,-0.861 0.975,-1.234c0.408,-0.372 0.887,-0.709 1.419,-1.002c0.542,-0.291 1.091,-0.54 1.666,-0.745c0.568,-0.203 1.146,-0.363 1.721,-0.47c0.577,-0.105 1.11,-0.16 1.606,-0.16c0.905,0 1.685,0.117 2.332,0.365c0.64,0.239 1.162,0.594 1.57,1.055c0.399,0.461 0.693,1.019 0.879,1.685c0.186,0.656 0.284,1.401 0.284,2.234c0,0.568 -0.027,1.198 -0.072,1.881c-0.043,0.682 -0.105,1.401 -0.16,2.146c-0.062,0.754 -0.114,1.527 -0.167,2.324c-0.045,0.797 -0.071,1.587 -0.071,2.377c0,1.25 0.229,2.181 0.699,2.811c0.463,0.63 1.065,0.941 1.819,0.941c0.675,0 1.419,-0.249 2.236,-0.738l0.379,0.559c-0.584,0.577 -1.214,1.021 -1.897,1.322c-0.683,0.303 -1.401,0.453 -2.155,0.461c-0.568,-0.008 -1.081,-0.096 -1.561,-0.292c-0.478,-0.186 -0.886,-0.47 -1.232,-0.852c-0.346,-0.372 -0.62,-0.851 -0.806,-1.42c-0.187,-0.575 -0.284,-1.231 -0.284,-1.985c0,-0.232 0.007,-0.452 0.017,-0.673c0.009,-0.232 0.045,-0.471 0.088,-0.719l-0.079,0c-0.373,0.745 -0.807,1.48 -1.296,2.199c-0.487,0.727 -1.029,1.374 -1.613,1.942c-0.585,0.568 -1.206,1.019 -1.872,1.375c-0.656,0.346 -1.357,0.523 -2.083,0.523c-0.595,0 -1.146,-0.106 -1.633,-0.311c-0.496,-0.203 -0.923,-0.496 -1.269,-0.859c-0.354,-0.365 -0.621,-0.79 -0.814,-1.286c-0.196,-0.497 -0.294,-1.048 -0.294,-1.633c0,-0.761 0.141,-1.453 0.418,-2.084c0.284,-0.62 0.673,-1.178 1.17,-1.675c0.496,-0.489 1.09,-0.914 1.792,-1.277c0.692,-0.355 1.444,-0.656 2.253,-0.897c0.814,-0.239 1.675,-0.416 2.589,-0.532c0.905,-0.115 1.836,-0.177 2.776,-0.177c0.062,-0.542 0.115,-1.074 0.15,-1.58c0.046,-0.513 0.062,-1.081 0.062,-1.692Zm-7.981,8.921c0,0.346 0.043,0.666 0.115,0.976c0.071,0.301 0.186,0.576 0.346,0.807c0.16,0.239 0.363,0.417 0.611,0.549c0.249,0.143 0.551,0.205 0.897,0.205c0.39,0 0.788,-0.088 1.206,-0.274c0.417,-0.179 0.823,-0.437 1.224,-0.754c0.408,-0.32 0.788,-0.702 1.162,-1.146c0.363,-0.451 0.69,-0.931 0.993,-1.463c0.292,-0.532 0.532,-1.081 0.726,-1.666c0.196,-0.587 0.329,-1.189 0.391,-1.802c-0.647,0.019 -1.277,0.055 -1.916,0.124c-0.63,0.062 -1.232,0.17 -1.8,0.303c-0.568,0.141 -1.091,0.318 -1.579,0.549c-0.478,0.222 -0.896,0.506 -1.249,0.834c-0.346,0.338 -0.623,0.727 -0.826,1.188c-0.195,0.453 -0.301,0.976 -0.301,1.57Zm21.153,4.549c-0.222,-0.823 -0.463,-1.685 -0.718,-2.58c-0.258,-0.904 -0.516,-1.809 -0.781,-2.713c-0.267,-0.914 -0.532,-1.809 -0.79,-2.697c-0.265,-0.878 -0.523,-1.721 -0.771,-2.518c-0.248,-0.799 -0.479,-1.535 -0.701,-2.218c-0.222,-0.675 -0.418,-1.26 -0.594,-1.756c-0.177,-0.513 -0.354,-0.931 -0.523,-1.251c-0.17,-0.327 -0.346,-0.584 -0.523,-0.761c-0.186,-0.186 -0.373,-0.312 -0.577,-0.382c-0.196,-0.062 -0.418,-0.098 -0.657,-0.098c-0.284,0 -0.575,0.027 -0.895,0.089c-0.31,0.062 -0.692,0.141 -1.136,0.248l-0.195,-0.94c0.524,-0.187 1.028,-0.363 1.527,-0.514c0.496,-0.16 0.957,-0.293 1.382,-0.408c0.427,-0.107 0.799,-0.195 1.136,-0.258c0.327,-0.062 0.585,-0.088 0.78,-0.088c0.222,0 0.435,0.036 0.638,0.115c0.205,0.081 0.4,0.212 0.594,0.408c0.196,0.196 0.391,0.461 0.568,0.807c0.186,0.336 0.365,0.771 0.551,1.295c0.115,0.328 0.265,0.745 0.434,1.258c0.168,0.525 0.346,1.101 0.55,1.757c0.195,0.656 0.408,1.365 0.639,2.138c0.222,0.771 0.451,1.578 0.683,2.411c0.222,0.835 0.451,1.694 0.682,2.563c0.222,0.879 0.435,1.74 0.647,2.599c0.435,-1.134 0.888,-2.315 1.358,-3.556c0.47,-1.232 0.948,-2.475 1.437,-3.716c0.496,-1.25 0.983,-2.482 1.463,-3.707c0.487,-1.233 0.957,-2.403 1.401,-3.52c0.079,-0.186 0.186,-0.346 0.32,-0.463c0.133,-0.124 0.283,-0.221 0.451,-0.291c0.16,-0.081 0.338,-0.124 0.515,-0.16c0.177,-0.026 0.355,-0.045 0.523,-0.045c0.284,0 0.568,0.045 0.833,0.124c0.267,0.081 0.525,0.186 0.763,0.303c-0.391,0.637 -0.789,1.339 -1.214,2.11c-0.418,0.78 -0.852,1.606 -1.287,2.482c-0.444,0.878 -0.887,1.802 -1.339,2.75c-0.443,0.949 -0.887,1.925 -1.329,2.918c-0.444,0.993 -0.878,1.986 -1.305,2.989c-0.425,1.002 -0.843,1.987 -1.242,2.954c-0.408,0.974 -0.789,1.942 -1.152,2.9c-0.363,0.957 -0.719,1.888 -1.065,2.785c-0.346,0.895 -0.692,1.754 -1.019,2.58c-0.337,0.833 -0.675,1.606 -1.021,2.325c-0.327,0.663 -0.683,1.284 -1.055,1.861c-0.372,0.577 -0.781,1.074 -1.232,1.49c-0.453,0.427 -0.949,0.754 -1.491,1.002c-0.54,0.241 -1.144,0.365 -1.8,0.365c-0.408,0 -0.771,-0.062 -1.1,-0.169c-0.327,-0.108 -0.611,-0.249 -0.842,-0.426c-0.23,-0.178 -0.399,-0.381 -0.523,-0.622c-0.124,-0.229 -0.186,-0.478 -0.186,-0.735c0,-0.284 0.088,-0.585 0.257,-0.895c0.168,-0.303 0.389,-0.533 0.664,-0.693c0.365,0.222 0.737,0.39 1.11,0.48c0.372,0.096 0.709,0.141 1.002,0.141c0.709,0 1.339,-0.186 1.888,-0.577c0.551,-0.38 1.064,-0.957 1.553,-1.728c0.487,-0.771 0.967,-1.74 1.463,-2.9c0.487,-1.163 1.029,-2.52 1.633,-4.081l0.256,-0.692l-0.638,-0.089Z" style="fill:#fff;"/><path d="M189.073,49.75l2.76,-0.004c-0.194,1.903 -0.392,3.618 -0.584,5.154c-0.042,0.303 -0.12,0.558 -0.231,0.763c-0.111,0.193 -0.249,0.352 -0.394,0.473c-0.154,0.121 -0.316,0.206 -0.488,0.255c-0.179,0.049 -0.35,0.073 -0.513,0.073c-0.28,0 -0.529,-0.048 -0.752,-0.133c-0.213,-0.084 -0.425,-0.191 -0.613,-0.348c0.316,-2.024 0.587,-4.094 0.815,-6.233" style="fill:#fff;"/><path d="M53.729,50.498l-41.696,-0.194l80.257,-36.705l-38.561,36.899Z" style="fill:#fdc200;"/><path d="M54.709,51.498l-1.629,41.665l40.179,-78.576l-38.55,36.911Z" style="fill:#f6af01;"/><path d="M63.651,11.837c6.08,0 11.748,1.813 16.495,4.923l-2.937,1.398c-4.006,-2.283 -8.63,-3.591 -13.558,-3.591c-7.62,0 -14.525,3.121 -19.519,8.161c-3.704,3.738 -6.317,8.035 -7.415,13.206l-2.959,1.324c0.939,-6.52 3.923,-11.896 8.442,-16.452c5.487,-5.537 13.074,-8.969 21.451,-8.969Zm26.401,15.437c2.222,4.256 3.934,10.028 3.934,15.169c0,8.447 -3.397,16.097 -8.884,21.639c-4.718,4.759 -11.402,8.041 -18.388,8.846l1.087,-2.921c6.17,-0.819 11.182,-3.62 15.368,-7.847c4.993,-5.042 8.087,-12.015 8.087,-19.717c0,-3.989 -1.357,-9.084 -2.853,-12.518l1.649,-2.651Zm-39.64,42.711c-3.061,-1.502 -5.834,-3.503 -8.212,-5.903c-2.93,-2.959 -5.264,-6.519 -6.804,-10.484l2.962,0.03c1.39,3.203 3.361,6.094 5.774,8.532c1.895,1.914 4.066,3.549 6.446,4.844l-0.166,2.981Z" style="fill:#fdc200;fill-rule:nonzero;"/><path d="M119.288,73.168c0.314,0 0.595,-0.053 0.842,-0.159c0.247,-0.106 0.457,-0.255 0.629,-0.445c0.171,-0.191 0.302,-0.419 0.392,-0.684c0.09,-0.265 0.134,-0.556 0.134,-0.874l0,-4.614l1.022,0l0,4.618c0,0.438 -0.069,0.844 -0.208,1.218c-0.14,0.374 -0.339,0.699 -0.599,0.973c-0.259,0.274 -0.577,0.489 -0.951,0.645c-0.375,0.155 -0.795,0.233 -1.261,0.233c-0.467,0 -0.887,-0.078 -1.261,-0.233c-0.375,-0.156 -0.692,-0.371 -0.954,-0.645c-0.261,-0.274 -0.461,-0.599 -0.6,-0.973c-0.14,-0.374 -0.21,-0.78 -0.21,-1.218l0,-4.618l1.022,0l0,4.609c0,0.318 0.046,0.609 0.136,0.874c0.09,0.265 0.221,0.493 0.392,0.683c0.171,0.191 0.381,0.339 0.631,0.447c0.248,0.108 0.529,0.163 0.844,0.163Zm6.665,0.815l0,-7.596l2.421,0c0.466,0 0.869,0.045 1.207,0.137c0.337,0.092 0.614,0.223 0.831,0.392c0.217,0.172 0.378,0.378 0.482,0.624c0.104,0.247 0.156,0.522 0.156,0.831c0,0.187 -0.029,0.368 -0.087,0.541c-0.058,0.173 -0.146,0.334 -0.265,0.484c-0.118,0.148 -0.266,0.28 -0.445,0.397c-0.178,0.116 -0.388,0.212 -0.628,0.286c0.554,0.109 0.973,0.309 1.255,0.599c0.283,0.289 0.424,0.671 0.424,1.144c0,0.321 -0.058,0.615 -0.177,0.879c-0.118,0.265 -0.291,0.493 -0.519,0.684c-0.227,0.19 -0.507,0.337 -0.837,0.441c-0.33,0.104 -0.708,0.157 -1.132,0.157l-2.686,0Zm1.028,-3.459l0,2.644l1.642,0c0.293,0 0.546,-0.034 0.756,-0.101c0.21,-0.067 0.383,-0.161 0.519,-0.283c0.136,-0.122 0.235,-0.266 0.299,-0.434c0.063,-0.168 0.095,-0.353 0.095,-0.555c0,-0.392 -0.138,-0.701 -0.415,-0.928c-0.277,-0.228 -0.698,-0.343 -1.259,-0.343l-1.637,0Zm0,-0.736l1.356,0c0.29,0 0.541,-0.032 0.753,-0.096c0.211,-0.063 0.388,-0.152 0.527,-0.265c0.14,-0.111 0.243,-0.249 0.31,-0.409c0.067,-0.159 0.1,-0.336 0.1,-0.526c0,-0.444 -0.134,-0.77 -0.402,-0.977c-0.269,-0.208 -0.686,-0.313 -1.251,-0.313l-1.393,0l0,2.586Zm12.387,-3.401l0,0.837l-3.644,0l0,2.521l2.95,0l0,0.806l-2.95,0l0,2.595l3.644,0l0,0.837l-4.677,0l0,-7.596l4.677,0Zm4.489,4.428l0,3.174l-1.022,0l0,-7.602l2.145,0c0.48,0 0.895,0.049 1.245,0.146c0.35,0.097 0.639,0.237 0.867,0.42c0.228,0.184 0.396,0.407 0.505,0.666c0.109,0.261 0.164,0.551 0.164,0.873c0,0.27 -0.042,0.52 -0.127,0.754c-0.085,0.233 -0.206,0.443 -0.367,0.628c-0.161,0.186 -0.357,0.344 -0.588,0.475c-0.231,0.131 -0.495,0.23 -0.788,0.297c0.127,0.074 0.24,0.182 0.339,0.323l2.215,3.02l-0.911,0c-0.188,0 -0.325,-0.073 -0.414,-0.218l-1.97,-2.717c-0.06,-0.085 -0.126,-0.145 -0.197,-0.182c-0.07,-0.037 -0.176,-0.057 -0.317,-0.057l-0.779,0Zm0,-0.752l1.075,0c0.301,0 0.565,-0.035 0.793,-0.108c0.228,-0.072 0.419,-0.175 0.572,-0.307c0.154,-0.132 0.269,-0.289 0.346,-0.473c0.078,-0.184 0.117,-0.387 0.117,-0.607c0,-0.453 -0.148,-0.794 -0.447,-1.021c-0.298,-0.23 -0.743,-0.345 -1.333,-0.345l-1.123,0l0,2.861Zm12.795,1.081l0,2.839l-1.022,0l0,-7.596l2.24,0c0.481,0 0.899,0.056 1.254,0.167c0.355,0.111 0.648,0.269 0.881,0.473c0.233,0.205 0.408,0.454 0.523,0.744c0.115,0.29 0.171,0.613 0.171,0.969c0,0.355 -0.061,0.678 -0.185,0.972c-0.124,0.293 -0.304,0.545 -0.542,0.759c-0.239,0.212 -0.535,0.376 -0.888,0.495c-0.354,0.118 -0.758,0.178 -1.214,0.178l-1.218,0Zm0,-0.816l1.218,0c0.293,0 0.553,-0.039 0.777,-0.117c0.225,-0.077 0.412,-0.187 0.564,-0.326c0.152,-0.14 0.266,-0.306 0.344,-0.5c0.078,-0.194 0.116,-0.408 0.116,-0.641c0,-0.484 -0.148,-0.862 -0.446,-1.134c-0.299,-0.272 -0.751,-0.408 -1.355,-0.408l-1.218,0l0,3.126Zm12.742,3.655l-0.795,0c-0.091,0 -0.166,-0.023 -0.222,-0.069c-0.056,-0.045 -0.099,-0.104 -0.127,-0.174l-0.71,-1.833l-3.406,0l-0.71,1.833c-0.025,0.063 -0.067,0.12 -0.128,0.169c-0.06,0.05 -0.134,0.074 -0.222,0.074l-0.795,0l3.036,-7.596l1.043,0l3.036,7.596Zm-4.974,-2.813l2.834,0l-1.192,-3.092c-0.078,-0.191 -0.154,-0.429 -0.228,-0.715c-0.039,0.145 -0.076,0.277 -0.113,0.399c-0.037,0.122 -0.074,0.23 -0.11,0.322l-1.191,3.086Zm8.943,-0.355l0,3.174l-1.022,0l0,-7.602l2.145,0c0.481,0 0.896,0.049 1.245,0.146c0.35,0.097 0.64,0.237 0.867,0.42c0.228,0.184 0.396,0.407 0.505,0.666c0.11,0.261 0.165,0.551 0.165,0.873c0,0.27 -0.043,0.52 -0.127,0.754c-0.085,0.233 -0.207,0.443 -0.368,0.628c-0.161,0.186 -0.356,0.344 -0.588,0.475c-0.231,0.131 -0.494,0.23 -0.787,0.297c0.127,0.074 0.24,0.182 0.339,0.323l2.214,3.02l-0.911,0c-0.187,0 -0.325,-0.073 -0.413,-0.218l-1.971,-2.717c-0.06,-0.085 -0.126,-0.145 -0.196,-0.182c-0.071,-0.037 -0.177,-0.057 -0.318,-0.057l-0.779,0Zm0,-0.752l1.076,0c0.3,0 0.565,-0.035 0.793,-0.108c0.227,-0.072 0.418,-0.175 0.572,-0.307c0.153,-0.132 0.268,-0.289 0.346,-0.473c0.078,-0.184 0.116,-0.387 0.116,-0.607c0,-0.453 -0.148,-0.794 -0.446,-1.021c-0.299,-0.23 -0.744,-0.345 -1.334,-0.345l-1.123,0l0,2.861Zm12.472,-3.687l0,0.869l-2.453,0l0,6.733l-1.027,0l0,-6.733l-2.464,0l0,-0.869l5.944,0Zm3.493,0.011c0.092,0 0.161,0.01 0.205,0.033c0.044,0.023 0.093,0.071 0.15,0.141l4.397,5.722c-0.011,-0.092 -0.018,-0.182 -0.021,-0.269c-0.004,-0.086 -0.006,-0.169 -0.006,-0.25l0,-5.377l0.901,0l0,7.596l-0.519,0c-0.082,0 -0.149,-0.014 -0.203,-0.042c-0.055,-0.028 -0.11,-0.076 -0.163,-0.143l-4.392,-5.716c0.007,0.088 0.013,0.175 0.016,0.259c0.004,0.085 0.006,0.163 0.006,0.234l0,5.408l-0.901,0l0,-7.596l0.53,0Zm14.04,0l0,0.837l-3.645,0l0,2.521l2.951,0l0,0.806l-2.951,0l0,2.595l3.645,0l0,0.837l-4.678,0l0,-7.596l4.678,0Zm4.489,4.428l0,3.174l-1.023,0l0,-7.602l2.146,0c0.48,0 0.895,0.049 1.245,0.146c0.349,0.097 0.639,0.237 0.866,0.42c0.228,0.184 0.396,0.407 0.506,0.666c0.109,0.261 0.164,0.551 0.164,0.873c0,0.27 -0.043,0.52 -0.127,0.754c-0.085,0.233 -0.207,0.443 -0.368,0.628c-0.16,0.186 -0.356,0.344 -0.588,0.475c-0.231,0.131 -0.494,0.23 -0.787,0.297c0.127,0.074 0.24,0.182 0.339,0.323l2.214,3.02l-0.911,0c-0.187,0 -0.325,-0.073 -0.413,-0.218l-1.971,-2.717c-0.06,-0.085 -0.125,-0.145 -0.196,-0.182c-0.071,-0.037 -0.177,-0.057 -0.318,-0.057l-0.778,0Zm0,-0.752l1.075,0c0.3,0 0.565,-0.035 0.793,-0.108c0.227,-0.072 0.418,-0.175 0.572,-0.307c0.153,-0.132 0.268,-0.289 0.346,-0.473c0.078,-0.184 0.116,-0.387 0.116,-0.607c0,-0.453 -0.148,-0.794 -0.446,-1.021c-0.299,-0.23 -0.744,-0.345 -1.333,-0.345l-1.123,0l0,2.861Zm16.344,-3.676l0,0.837l-3.645,0l0,2.521l2.951,0l0,0.806l-2.951,0l0,2.595l3.645,0l0,0.837l-4.678,0l0,-7.596l4.678,0Zm2.533,2.224l0.774,0c0.074,0 0.136,0.02 0.185,0.059c0.05,0.039 0.085,0.085 0.106,0.138l1.362,3.457c0.049,0.127 0.088,0.255 0.116,0.382c0.029,0.127 0.055,0.252 0.08,0.377c0.028,-0.125 0.058,-0.25 0.09,-0.377c0.032,-0.127 0.072,-0.255 0.122,-0.382l1.377,-3.457c0.021,-0.057 0.057,-0.103 0.104,-0.14c0.048,-0.037 0.106,-0.057 0.177,-0.057l0.736,0l-2.188,5.372l-0.853,0l-2.188,-5.372Zm9.972,-0.084c0.322,0 0.618,0.054 0.89,0.162c0.272,0.108 0.507,0.263 0.705,0.466c0.197,0.204 0.353,0.456 0.464,0.754c0.111,0.299 0.166,0.64 0.166,1.023c0,0.148 -0.016,0.247 -0.048,0.297c-0.031,0.049 -0.091,0.074 -0.18,0.074l-3.57,0c0.007,0.339 0.053,0.635 0.137,0.886c0.085,0.253 0.202,0.461 0.35,0.631c0.148,0.167 0.325,0.293 0.53,0.376c0.205,0.083 0.434,0.125 0.688,0.125c0.237,0 0.442,-0.028 0.613,-0.083c0.172,-0.055 0.318,-0.115 0.442,-0.178c0.123,-0.064 0.228,-0.122 0.311,-0.177c0.082,-0.056 0.153,-0.083 0.213,-0.083c0.078,0 0.138,0.03 0.18,0.09l0.265,0.346c-0.116,0.14 -0.256,0.262 -0.418,0.366c-0.163,0.104 -0.336,0.189 -0.521,0.256c-0.186,0.065 -0.378,0.117 -0.576,0.15c-0.198,0.034 -0.394,0.05 -0.588,0.05c-0.371,0 -0.712,-0.064 -1.024,-0.189c-0.313,-0.126 -0.583,-0.309 -0.811,-0.551c-0.227,-0.242 -0.406,-0.542 -0.533,-0.899c-0.127,-0.357 -0.191,-0.767 -0.191,-1.231c0,-0.374 0.059,-0.724 0.173,-1.049c0.115,-0.325 0.279,-0.607 0.495,-0.846c0.215,-0.238 0.478,-0.425 0.789,-0.561c0.311,-0.136 0.66,-0.205 1.049,-0.205Zm0.021,0.699c-0.455,0 -0.814,0.131 -1.075,0.394c-0.261,0.261 -0.424,0.625 -0.488,1.089l2.919,0c0,-0.218 -0.03,-0.418 -0.09,-0.598c-0.059,-0.182 -0.148,-0.339 -0.264,-0.47c-0.117,-0.132 -0.258,-0.235 -0.426,-0.307c-0.168,-0.073 -0.36,-0.108 -0.576,-0.108Zm5.289,4.757l0,-5.372l0.54,0c0.102,0 0.173,0.022 0.212,0.062c0.039,0.041 0.065,0.113 0.079,0.214l0.064,0.89c0.184,-0.397 0.411,-0.706 0.682,-0.927c0.27,-0.223 0.586,-0.334 0.949,-0.334c0.149,0 0.283,0.018 0.403,0.052c0.12,0.035 0.232,0.082 0.334,0.144l-0.122,0.705c-0.025,0.088 -0.079,0.132 -0.164,0.132c-0.05,0 -0.125,-0.017 -0.228,-0.051c-0.102,-0.034 -0.245,-0.049 -0.429,-0.049c-0.328,0 -0.602,0.098 -0.823,0.298c-0.221,0.2 -0.406,0.489 -0.555,0.869l0,3.367l-0.942,0Zm7.725,1.59c-0.032,0.07 -0.071,0.127 -0.119,0.169c-0.047,0.043 -0.121,0.064 -0.22,0.064l-0.7,0l0.981,-2.098l-2.215,-5.091l0.816,0c0.081,0 0.145,0.021 0.191,0.062c0.046,0.04 0.079,0.086 0.1,0.136l1.436,3.424c0.032,0.077 0.06,0.157 0.083,0.235c0.023,0.079 0.042,0.16 0.06,0.241c0.025,-0.081 0.049,-0.162 0.074,-0.241c0.025,-0.078 0.053,-0.159 0.085,-0.241l1.393,-3.418c0.021,-0.057 0.058,-0.105 0.11,-0.142c0.051,-0.037 0.106,-0.056 0.166,-0.056l0.752,0l-2.993,6.956Zm16.551,-5.386c0,0.57 -0.09,1.088 -0.27,1.554c-0.18,0.466 -0.435,0.865 -0.763,1.199c-0.328,0.332 -0.722,0.588 -1.181,0.77c-0.459,0.182 -0.968,0.273 -1.526,0.273l-2.84,0l0,-7.596l2.84,0c0.558,0 1.067,0.091 1.526,0.273c0.459,0.182 0.853,0.44 1.181,0.774c0.328,0.334 0.583,0.734 0.763,1.2c0.18,0.467 0.27,0.984 0.27,1.553Zm-1.054,0c0,-0.465 -0.064,-0.881 -0.191,-1.249c-0.127,-0.367 -0.307,-0.678 -0.54,-0.93c-0.233,-0.255 -0.516,-0.449 -0.848,-0.583c-0.332,-0.134 -0.701,-0.201 -1.107,-0.201l-1.807,0l0,5.922l1.807,0c0.406,0 0.775,-0.067 1.107,-0.201c0.332,-0.134 0.615,-0.327 0.848,-0.579c0.233,-0.253 0.413,-0.562 0.54,-0.929c0.127,-0.367 0.191,-0.784 0.191,-1.25Zm4.186,3.796l0,-5.372l0.541,0c0.102,0 0.173,0.022 0.211,0.062c0.039,0.041 0.066,0.113 0.08,0.214l0.064,0.89c0.183,-0.397 0.411,-0.706 0.681,-0.927c0.27,-0.223 0.587,-0.334 0.95,-0.334c0.149,0 0.283,0.018 0.403,0.052c0.12,0.035 0.231,0.082 0.334,0.144l-0.122,0.705c-0.025,0.088 -0.08,0.132 -0.164,0.132c-0.05,0 -0.126,-0.017 -0.228,-0.051c-0.103,-0.034 -0.246,-0.049 -0.429,-0.049c-0.329,0 -0.602,0.098 -0.823,0.298c-0.221,0.2 -0.406,0.489 -0.555,0.869l0,3.367l-0.943,0Zm7.201,-5.372l0,5.372l-0.943,0l0,-5.372l0.943,0Zm0.212,-1.684c0,0.092 -0.018,0.176 -0.055,0.256c-0.037,0.079 -0.086,0.15 -0.148,0.212c-0.062,0.062 -0.134,0.111 -0.216,0.146c-0.081,0.036 -0.167,0.053 -0.259,0.053c-0.092,0 -0.177,-0.017 -0.256,-0.053c-0.08,-0.035 -0.15,-0.084 -0.212,-0.146c-0.062,-0.062 -0.111,-0.133 -0.147,-0.212c-0.035,-0.08 -0.053,-0.164 -0.053,-0.256c0,-0.092 0.018,-0.18 0.053,-0.263c0.036,-0.083 0.085,-0.156 0.147,-0.217c0.062,-0.062 0.132,-0.11 0.212,-0.145c0.079,-0.036 0.164,-0.053 0.256,-0.053c0.092,0 0.178,0.017 0.259,0.053c0.082,0.035 0.154,0.083 0.216,0.145c0.062,0.061 0.111,0.134 0.148,0.217c0.037,0.083 0.055,0.171 0.055,0.263Zm2.655,1.684l0.774,0c0.074,0 0.136,0.02 0.185,0.059c0.05,0.039 0.085,0.085 0.106,0.138l1.362,3.457c0.049,0.127 0.088,0.255 0.116,0.382c0.029,0.127 0.055,0.252 0.08,0.377c0.028,-0.125 0.058,-0.25 0.09,-0.377c0.031,-0.127 0.072,-0.255 0.122,-0.382l1.377,-3.457c0.021,-0.057 0.057,-0.103 0.104,-0.14c0.048,-0.037 0.106,-0.057 0.177,-0.057l0.736,0l-2.188,5.372l-0.853,0l-2.188,-5.372Zm9.972,-0.084c0.321,0 0.618,0.054 0.89,0.162c0.272,0.108 0.507,0.263 0.704,0.466c0.198,0.204 0.354,0.456 0.465,0.754c0.111,0.299 0.166,0.64 0.166,1.023c0,0.148 -0.016,0.247 -0.048,0.297c-0.031,0.049 -0.092,0.074 -0.18,0.074l-3.571,0c0.008,0.339 0.053,0.635 0.138,0.886c0.085,0.253 0.201,0.461 0.35,0.631c0.148,0.167 0.325,0.293 0.53,0.376c0.204,0.083 0.434,0.125 0.688,0.125c0.237,0 0.442,-0.028 0.613,-0.083c0.171,-0.055 0.318,-0.115 0.442,-0.178c0.123,-0.064 0.227,-0.122 0.311,-0.177c0.082,-0.056 0.153,-0.083 0.213,-0.083c0.078,0 0.138,0.03 0.18,0.09l0.265,0.346c-0.117,0.14 -0.256,0.262 -0.418,0.366c-0.163,0.104 -0.336,0.189 -0.521,0.256c-0.186,0.065 -0.378,0.117 -0.576,0.15c-0.198,0.034 -0.394,0.05 -0.588,0.05c-0.371,0 -0.712,-0.064 -1.024,-0.189c-0.313,-0.126 -0.583,-0.309 -0.811,-0.551c-0.228,-0.242 -0.406,-0.542 -0.533,-0.899c-0.127,-0.357 -0.191,-0.767 -0.191,-1.231c0,-0.374 0.059,-0.724 0.173,-1.049c0.115,-0.325 0.279,-0.607 0.495,-0.846c0.215,-0.238 0.478,-0.425 0.789,-0.561c0.311,-0.136 0.66,-0.205 1.049,-0.205Zm0.021,0.699c-0.456,0 -0.814,0.131 -1.075,0.394c-0.262,0.261 -0.424,0.625 -0.488,1.089l2.919,0c0,-0.218 -0.03,-0.418 -0.09,-0.598c-0.06,-0.182 -0.148,-0.339 -0.265,-0.47c-0.116,-0.132 -0.258,-0.235 -0.425,-0.307c-0.168,-0.073 -0.36,-0.108 -0.576,-0.108Zm5.289,4.757l0,-5.372l0.54,0c0.102,0 0.173,0.022 0.212,0.062c0.038,0.041 0.065,0.113 0.079,0.214l0.064,0.89c0.183,-0.397 0.411,-0.706 0.681,-0.927c0.271,-0.223 0.587,-0.334 0.95,-0.334c0.149,0 0.283,0.018 0.403,0.052c0.12,0.035 0.231,0.082 0.334,0.144l-0.122,0.705c-0.025,0.088 -0.079,0.132 -0.164,0.132c-0.05,0 -0.126,-0.017 -0.228,-0.051c-0.102,-0.034 -0.246,-0.049 -0.429,-0.049c-0.329,0 -0.602,0.098 -0.823,0.298c-0.221,0.2 -0.406,0.489 -0.555,0.869l0,3.367l-0.942,0Z" style="fill:#fff;fill-rule:nonzero;"/></g></svg>