<?xml version="1.0" encoding="UTF-8" standalone="no"?>
<svg
   xmlns:dc="http://purl.org/dc/elements/1.1/"
   xmlns:cc="http://creativecommons.org/ns#"
   xmlns:rdf="http://www.w3.org/1999/02/22-rdf-syntax-ns#"
   xmlns:svg="http://www.w3.org/2000/svg"
   xmlns="http://www.w3.org/2000/svg"
   viewBox="0 0 499.99982 168.62901"
   height="168.62901"
   width="499.99982"
   xml:space="preserve"
   id="svg2"
   version="1.1"><metadata
     id="metadata8"><rdf:RDF><cc:Work
         rdf:about=""><dc:format>image/svg+xml</dc:format><dc:type
           rdf:resource="http://purl.org/dc/dcmitype/StillImage" /><dc:title></dc:title></cc:Work></rdf:RDF></metadata><defs
     id="defs6" /><g
     transform="matrix(1.3333333,0,0,-1.3333333,-1030.0005,532.31333)"
     id="g10"><g
       transform="matrix(0.0259043,0,0,0.0259043,769.99174,269.49631)"
       id="g12"><path
         id="path14"
         style="fill:#d32536;fill-opacity:1;fill-rule:evenodd;stroke:none"
         d="m 3129.5,2193.61 1195.47,1.63 -43.7,-272.01 -999.62,-954.421 838.73,1.671 -48.72,-293.781 -1235.27,-0.207 51.62,302.969 958.22,917.649 -764.42,0.03 47.69,296.47 v 0" /><path
         id="path16"
         style="fill:#d32536;fill-opacity:1;fill-rule:evenodd;stroke:none"
         d="m 1571.33,2287.59 c -0.31,-3.48 -28.86,-172.66 -67.44,-372.75 -14.76,-76.57 -73.25,-117.68 -140.73,-131.94 -111.38,-23.52 -231.26,-19.21 -231.26,-19.21 l -527.388,1.35 115.793,698.93 477.875,-1.32 c 0,0 32.34,0.67 77.5,-0.03 51.32,-0.8 119.2,-3.37 174.99,-10.72 47.78,-6.29 86.69,-16.08 98.72,-31.27 15.88,-20.04 22.43,-45.63 24.63,-69 3.14,-33.24 -2.52,-62.02 -2.69,-64.04 z m 251.28,371.25 c -26.2,27.66 -63.16,48.99 -104.94,65.45 -43.31,17.06 -91.8,28.88 -138.79,37.05 -59.88,10.43 -117.36,14.93 -158.68,16.87 -38.03,1.78 -62.38,1.37 -62.38,1.37 l -522.578,0.07 -388.883,0.06 -349.5152,-2103.132 325.4222,-0.336 128.629,779.578 630.945,-2.73 c 0,0 245.66,-9.64 420.09,82.63 174.39,92.34 220.57,302.29 220.57,302.29 0,0 19.19,77.88 34.85,172.99 17.22,104.45 34.84,229.86 44,296.63 4.01,29.3 6.39,47.32 6.39,47.32 0,0 4.24,21.65 4.63,55.23 0.56,46.96 -6.39,117.26 -42.94,184.24 -12.11,22.16 -27.44,43.96 -46.82,64.42" /><path
         id="path18"
         style="fill:#d32536;fill-opacity:1;fill-rule:evenodd;stroke:none"
         d="m 5945.11,2780.04 312.99,0.25 -350.7,-2104.177 -313.78,0.504 351.49,2103.423 v 0" /><path
         id="path20"
         style="fill:#d32536;fill-opacity:1;fill-rule:evenodd;stroke:none"
         d="m 7617.3,2193.95 300.22,0.25 106.05,-1067.62 461.81,1069.55 370.57,-1.01 109.48,-1072.94 461.88,1071.93 311.43,0.29 L 9076.83,677.41 8707.03,677.371 8600.44,1739.63 8133.21,677.348 7769.68,676.324 7617.3,2193.95 v 0" /><path
         id="path22"
         style="fill:#d32536;fill-opacity:1;fill-rule:nonzero;stroke:none"
         d="m 5298.71,1628.06 -699.13,0.76 27.81,110.97 c 0,0 24.28,86.77 72.76,123.84 48.52,37.04 110.51,43.32 168.89,48.99 58.42,5.68 213.01,16.57 339.2,-9.44 41.9,-8.59 81.74,-32.16 92.1,-67.05 24.49,-82.38 -1.63,-208.07 -1.63,-208.07 z m 67.97,553.09 c -87.73,28.61 -240.09,34.27 -368.68,32.67 -124.64,-1.55 -181.8,-7.37 -228.31,-17.4 0,0 -221.74,-31.78 -347.55,-187.68 -125.82,-155.88 -163.35,-497.01 -163.35,-497.01 0,0 -74.7,-376.98 -52.85,-502.58 21.81,-125.603 60.98,-242.029 203.33,-296.677 142.37,-54.645 263.12,-52.207 263.12,-52.207 0,0 253.69,-19.926 444.84,25.289 191.16,45.117 291.94,179.699 291.94,179.699 0,0 44.83,57.879 77.17,127.019 32.37,69.137 41.85,117.117 43.28,123.017 l 20.05,81.45 -324.99,-0.42 c 0,0 -17.91,-214.468 -193.13,-234.265 -175.17,-19.75 -269.2,-12.285 -303.09,-11.012 -33.39,1.223 -221.61,-6.531 -206.35,150.397 0.08,2.12 0.21,5.22 0.43,9.62 8.73,179 28.6,225.39 28.6,225.39 l 1020.17,2.87 43.53,251.96 c 49.53,286.66 13.17,504.66 -248.16,589.87" /><path
         id="path24"
         style="fill:#d32536;fill-opacity:1;fill-rule:nonzero;stroke:none"
         d="m 4522.92,1108.57 c -0.32,-2.41 -0.59,-4.79 -0.81,-7.13 -0.46,-11.94 0.91,7.79 0.81,7.13" /><path
         id="path26"
         style="fill:#d32536;fill-opacity:1;fill-rule:nonzero;stroke:none"
         d="m 6447.33,1108.21 c -0.32,-2.41 -0.59,-4.79 -0.82,-7.13 -0.45,-11.93 0.92,7.8 0.82,7.13" /><path
         id="path28"
         style="fill:#d32536;fill-opacity:1;fill-rule:nonzero;stroke:none"
         d="m 7220.38,1628.48 -699.08,0.72 27.81,111.01 c 0,0 24.29,86.79 72.77,123.81 48.48,37.02 110.46,43.36 168.89,49.02 58.42,5.62 212.96,16.56 339.19,-9.48 41.86,-8.57 81.7,-32.13 92.1,-67.06 24.5,-82.37 -1.68,-208.02 -1.68,-208.02 z m 70.76,552.34 c -87.78,28.61 -240.14,34.27 -368.73,32.64 -124.64,-1.52 -181.8,-7.35 -228.31,-17.38 0,0 -221.74,-31.83 -347.55,-187.67 -125.82,-155.93 -163.36,-497.02 -163.36,-497.02 0,0 -74.69,-377.01 -52.83,-502.62 21.84,-125.606 60.97,-241.965 203.35,-296.672 142.34,-54.645 263.09,-52.215 263.09,-52.215 0,0 253.72,-19.883 444.84,25.289 191.16,45.164 291.94,179.746 291.94,179.746 0,0 44.83,57.887 77.17,126.996 32.37,69.116 41.85,117.136 43.32,123.046 l 20.04,81.45 -325.02,-0.42 c 0,0 -17.91,-214.498 -193.13,-234.248 -175.18,-19.773 -269.21,-12.355 -303.05,-11.094 -33.39,1.235 -221.64,-6.496 -206.4,150.432 0.08,2.12 0.22,5.23 0.44,9.65 8.72,178.99 28.6,225.38 28.6,225.38 l 1020.16,2.85 43.54,251.95 c 49.57,286.65 13.16,504.64 -248.11,589.91" /><path
         id="path30"
         style="fill:#d32536;fill-opacity:1;fill-rule:evenodd;stroke:none"
         d="m 10099.8,2193.8 200.7,-1109.08 568.1,1110.23 319.5,-2.72 -818.5,-1585.777 c 0,0 -148,-286.945 -240,-359.754 -91.8,-72.883 -147.89,-105.469 -223.07,-112.894 -75.11,-7.469 -105.29,-12.707 -177.34,0 l -76.18,13.375 47.68,283.148 c 0,0 126.53,-23.801 201.86,5.938 75.34,29.797 136.35,158.152 136.35,158.152 l 37.9,64.203 -295.73,1535.609 318.73,-0.43 v 0" /><path
         id="path32"
         style="fill:#b1afad;fill-opacity:1;fill-rule:evenodd;stroke:none"
         d="m 11303.3,2043.05 329.5,-0.46 19.5,127.79 c 0,0 35.3,230.53 113.7,275.07 25.2,14.26 65.5,27.85 112.1,35.95 86,14.92 195.9,16.66 284.8,13.46 137.1,-4.95 188.3,-6.16 327.7,-22 139.4,-15.87 103.8,-150.41 103.8,-150.41 l -27.3,-200.64 c 0,0 -11.8,-89.88 -44,-146.03 -28.5,-49.65 -106,-83.05 -150.9,-97.72 -108.5,-35.39 -479.8,-129.76 -479.8,-129.76 l -292.2,-84.23 c 0,0 -179.2,-51.98 -279.9,-163.12 -100.7,-111.18 -140.3,-237.6 -154.1,-303.62 -13.7,-65.97 -90.8,-520.416 -90.8,-520.416 l 1575.4,-0.672 52.6,314.961 -1246.1,-1.43 22.4,128.337 c 0,0 14.5,132.32 68,175.47 16.9,13.67 25.3,31.75 124.8,67.21 59.4,21.18 262.7,75.32 262.7,75.32 l 470.1,128.25 c 0,0 256.5,66.05 357.6,205.96 101,139.87 139.9,408.02 139.9,408.02 0,0 27.1,260.32 6.4,341.93 -20.6,81.62 -97.9,179.63 -191.5,221.4 -93.7,41.77 -191.9,66.22 -475.6,62.34 -283.7,-3.92 -423.7,-17.17 -567.3,-69.97 -143.6,-52.76 -226.6,-149.09 -279.4,-284.85 -58.3,-128.21 -92.1,-406.14 -92.1,-406.14 v 0" /><path
         id="path34"
         style="fill:#b1afad;fill-opacity:1;fill-rule:evenodd;stroke:none"
         d="m 13943.8,1457.37 -688.8,1.05 838.4,893.09 z m 325.5,0.26 220.6,1323.06 -390.9,0.24 -1218.1,-1308.19 -55.3,-331.27 1065.3,0.12 -78,-464.844 326.8,-0.422 77.1,465.226 301.8,-0.63 54.6,317.13 -303.9,-0.42" /><path
         id="path36"
         style="fill:#b1afad;fill-opacity:1;fill-rule:evenodd;stroke:none"
         d="m 2513.21,2607.29 h 1003 c 0,0 225.01,181.81 384.46,298.4 159.45,116.61 449.71,300.74 449.71,300.74 l -566.55,265.11 c 0,0 -478.78,-296.56 -682.06,-436.47 -197.65,-128.92 -588.56,-427.78 -588.56,-427.78 v 0" /><path
         id="path38"
         style="fill:#b1afad;fill-opacity:1;fill-rule:evenodd;stroke:none"
         d="m 4669.45,3393.91 -465.27,313.24 c 0,0 421.11,239.17 980.78,462.37 559.68,223.24 858.16,316.09 858.16,316.09 l 94.49,-443.71 c 0,0 -538.84,-180.17 -847.63,-326.07 -318.91,-136.01 -620.53,-321.92 -620.53,-321.92 v 0" /><path
         id="path40"
         style="fill:#b1afad;fill-opacity:1;fill-rule:evenodd;stroke:none"
         d="m 6481.76,4139.29 -80.69,454.69 c 0,0 574.31,152.7 1100.56,250.63 526.22,97.93 1224.27,144.21 1224.27,144.21 l -230.97,-702.37 c 0,0 -613.93,83.79 -1189.87,5.57 -449.04,-53.47 -823.3,-152.73 -823.3,-152.73 v 0" /><path
         id="path42"
         style="fill:#b1afad;fill-opacity:1;fill-rule:evenodd;stroke:none"
         d="m 8859.3,4227.14 388.53,780.4 c 0,0 850.57,16.53 1583.87,-96.66 733.4,-113.24 1404.2,-287.67 1389.6,-295.3 l -1860,-972.78 c 0,0 -434.37,275.21 -974.1,444.06 -305.7,89.16 -527.9,140.28 -527.9,140.28 v 0" /><path
         id="path44"
         style="fill:#b1afad;fill-opacity:1;fill-rule:evenodd;stroke:none"
         d="m 10694.7,3430.56 409,-309.92 h 3359.5 c 0,0 -6.9,108.78 -96.4,262.82 -56,96.54 -157.4,198.58 -263.7,304.65 -38.7,38.53 -193.6,159.28 -309.2,234.24 -296.7,192.23 -462.3,266.57 -769.9,406.75 l -2329.3,-898.54 v 0" /><path
         id="path46"
         style="fill:#d32536;fill-opacity:1;fill-rule:nonzero;stroke:none"
         d="m 2730.61,2195.24 c -126.1,0 -245.2,-49.74 -346.98,-105.47 l 17.85,105.47 H 2067.32 L 1799.73,684.508 h 334.41 l 148.25,836.962 c 30.89,169.84 157.27,379.49 405.29,379.49 l 172.87,0.69 52,293.59 h -181.94" /></g></g></svg>